<svg xmlns="http://www.w3.org/2000/svg" viewBox="0 0 664 145" width="664" height="145" role="img" aria-label="CLAUDEX LOOP">
<rect width="664" height="145" rx="10" fill="#0d1117" stroke="#30363d"/>
<rect x="35" y="26" width="8" height="8" rx="1.5" fill="#d97757"/>
<rect x="44" y="26" width="8" height="8" rx="1.5" fill="#d97757"/>
<rect x="53" y="26" width="8" height="8" rx="1.5" fill="#d97757"/>
<rect x="26" y="35" width="8" height="8" rx="1.5" fill="#d97757"/>
<rect x="62" y="35" width="8" height="8" rx="1.5" fill="#d97757"/>
<rect x="26" y="44" width="8" height="8" rx="1.5" fill="#d97757"/>
<rect x="26" y="53" width="8" height="8" rx="1.5" fill="#d97757"/>
<rect x="26" y="62" width="8" height="8" rx="1.5" fill="#d97757"/>
<rect x="26" y="71" width="8" height="8" rx="1.5" fill="#d97757"/>
<rect x="62" y="71" width="8" height="8" rx="1.5" fill="#d97757"/>
<rect x="35" y="80" width="8" height="8" rx="1.5" fill="#d97757"/>
<rect x="44" y="80" width="8" height="8" rx="1.5" fill="#d97757"/>
<rect x="53" y="80" width="8" height="8" rx="1.5" fill="#d97757"/>
<rect x="80" y="26" width="8" height="8" rx="1.5" fill="#d97757"/>
<rect x="80" y="35" width="8" height="8" rx="1.5" fill="#d97757"/>
<rect x="80" y="44" width="8" height="8" rx="1.5" fill="#d97757"/>
<rect x="80" y="53" width="8" height="8" rx="1.5" fill="#d97757"/>
<rect x="80" y="62" width="8" height="8" rx="1.5" fill="#d97757"/>
<rect x="80" y="71" width="8" height="8" rx="1.5" fill="#d97757"/>
<rect x="80" y="80" width="8" height="8" rx="1.5" fill="#d97757"/>
<rect x="89" y="80" width="8" height="8" rx="1.5" fill="#d97757"/>
<rect x="98" y="80" width="8" height="8" rx="1.5" fill="#d97757"/>
<rect x="107" y="80" width="8" height="8" rx="1.5" fill="#d97757"/>
<rect x="116" y="80" width="8" height="8" rx="1.5" fill="#d97757"/>
<rect x="143" y="26" width="8" height="8" rx="1.5" fill="#d97757"/>
<rect x="152" y="26" width="8" height="8" rx="1.5" fill="#d97757"/>
<rect x="161" y="26" width="8" height="8" rx="1.5" fill="#d97757"/>
<rect x="134" y="35" width="8" height="8" rx="1.5" fill="#d97757"/>
<rect x="170" y="35" width="8" height="8" rx="1.5" fill="#d97757"/>
<rect x="134" y="44" width="8" height="8" rx="1.5" fill="#d97757"/>
<rect x="170" y="44" width="8" height="8" rx="1.5" fill="#d97757"/>
<rect x="134" y="53" width="8" height="8" rx="1.5" fill="#d97757"/>
<rect x="143" y="53" width="8" height="8" rx="1.5" fill="#d97757"/>
<rect x="152" y="53" width="8" height="8" rx="1.5" fill="#d97757"/>
<rect x="161" y="53" width="8" height="8" rx="1.5" fill="#d97757"/>
<rect x="170" y="53" width="8" height="8" rx="1.5" fill="#d97757"/>
<rect x="134" y="62" width="8" height="8" rx="1.5" fill="#d97757"/>
<rect x="170" y="62" width="8" height="8" rx="1.5" fill="#d97757"/>
<rect x="134" y="71" width="8" height="8" rx="1.5" fill="#d97757"/>
<rect x="170" y="71" width="8" height="8" rx="1.5" fill="#d97757"/>
<rect x="134" y="80" width="8" height="8" rx="1.5" fill="#d97757"/>
<rect x="170" y="80" width="8" height="8" rx="1.5" fill="#d97757"/>
<rect x="188" y="26" width="8" height="8" rx="1.5" fill="#d97757"/>
<rect x="224" y="26" width="8" height="8" rx="1.5" fill="#d97757"/>
<rect x="188" y="35" width="8" height="8" rx="1.5" fill="#d97757"/>
<rect x="224" y="35" width="8" height="8" rx="1.5" fill="#d97757"/>
<rect x="188" y="44" width="8" height="8" rx="1.5" fill="#d97757"/>
<rect x="224" y="44" width="8" height="8" rx="1.5" fill="#d97757"/>
<rect x="188" y="53" width="8" height="8" rx="1.5" fill="#d97757"/>
<rect x="224" y="53" width="8" height="8" rx="1.5" fill="#d97757"/>
<rect x="188" y="62" width="8" height="8" rx="1.5" fill="#d97757"/>
<rect x="224" y="62" width="8" height="8" rx="1.5" fill="#d97757"/>
<rect x="188" y="71" width="8" height="8" rx="1.5" fill="#d97757"/>
<rect x="224" y="71" width="8" height="8" rx="1.5" fill="#d97757"/>
<rect x="197" y="80" width="8" height="8" rx="1.5" fill="#d97757"/>
<rect x="206" y="80" width="8" height="8" rx="1.5" fill="#d97757"/>
<rect x="215" y="80" width="8" height="8" rx="1.5" fill="#d97757"/>
<rect x="242" y="26" width="8" height="8" rx="1.5" fill="#d97757"/>
<rect x="251" y="26" width="8" height="8" rx="1.5" fill="#d97757"/>
<rect x="260" y="26" width="8" height="8" rx="1.5" fill="#d97757"/>
<rect x="269" y="26" width="8" height="8" rx="1.5" fill="#d97757"/>
<rect x="242" y="35" width="8" height="8" rx="1.5" fill="#d97757"/>
<rect x="278" y="35" width="8" height="8" rx="1.5" fill="#d97757"/>
<rect x="242" y="44" width="8" height="8" rx="1.5" fill="#d97757"/>
<rect x="278" y="44" width="8" height="8" rx="1.5" fill="#d97757"/>
<rect x="242" y="53" width="8" height="8" rx="1.5" fill="#d97757"/>
<rect x="278" y="53" width="8" height="8" rx="1.5" fill="#d97757"/>
<rect x="242" y="62" width="8" height="8" rx="1.5" fill="#d97757"/>
<rect x="278" y="62" width="8" height="8" rx="1.5" fill="#d97757"/>
<rect x="242" y="71" width="8" height="8" rx="1.5" fill="#d97757"/>
<rect x="278" y="71" width="8" height="8" rx="1.5" fill="#d97757"/>
<rect x="242" y="80" width="8" height="8" rx="1.5" fill="#d97757"/>
<rect x="251" y="80" width="8" height="8" rx="1.5" fill="#d97757"/>
<rect x="260" y="80" width="8" height="8" rx="1.5" fill="#d97757"/>
<rect x="269" y="80" width="8" height="8" rx="1.5" fill="#d97757"/>
<rect x="296" y="26" width="8" height="8" rx="1.5" fill="#d97757"/>
<rect x="305" y="26" width="8" height="8" rx="1.5" fill="#d97757"/>
<rect x="314" y="26" width="8" height="8" rx="1.5" fill="#d97757"/>
<rect x="323" y="26" width="8" height="8" rx="1.5" fill="#d97757"/>
<rect x="332" y="26" width="8" height="8" rx="1.5" fill="#d97757"/>
<rect x="296" y="35" width="8" height="8" rx="1.5" fill="#d97757"/>
<rect x="296" y="44" width="8" height="8" rx="1.5" fill="#d97757"/>
<rect x="296" y="53" width="8" height="8" rx="1.5" fill="#d97757"/>
<rect x="305" y="53" width="8" height="8" rx="1.5" fill="#d97757"/>
<rect x="314" y="53" width="8" height="8" rx="1.5" fill="#d97757"/>
<rect x="323" y="53" width="8" height="8" rx="1.5" fill="#d97757"/>
<rect x="296" y="62" width="8" height="8" rx="1.5" fill="#d97757"/>
<rect x="296" y="71" width="8" height="8" rx="1.5" fill="#d97757"/>
<rect x="296" y="80" width="8" height="8" rx="1.5" fill="#d97757"/>
<rect x="305" y="80" width="8" height="8" rx="1.5" fill="#d97757"/>
<rect x="314" y="80" width="8" height="8" rx="1.5" fill="#d97757"/>
<rect x="323" y="80" width="8" height="8" rx="1.5" fill="#d97757"/>
<rect x="332" y="80" width="8" height="8" rx="1.5" fill="#d97757"/>
<rect x="350" y="26" width="8" height="8" rx="1.5" fill="#d97757"/>
<rect x="386" y="26" width="8" height="8" rx="1.5" fill="#d97757"/>
<rect x="350" y="35" width="8" height="8" rx="1.5" fill="#d97757"/>
<rect x="386" y="35" width="8" height="8" rx="1.5" fill="#d97757"/>
<rect x="359" y="44" width="8" height="8" rx="1.5" fill="#d97757"/>
<rect x="377" y="44" width="8" height="8" rx="1.5" fill="#d97757"/>
<rect x="368" y="53" width="8" height="8" rx="1.5" fill="#d97757"/>
<rect x="359" y="62" width="8" height="8" rx="1.5" fill="#d97757"/>
<rect x="377" y="62" width="8" height="8" rx="1.5" fill="#d97757"/>
<rect x="350" y="71" width="8" height="8" rx="1.5" fill="#d97757"/>
<rect x="386" y="71" width="8" height="8" rx="1.5" fill="#d97757"/>
<rect x="350" y="80" width="8" height="8" rx="1.5" fill="#d97757"/>
<rect x="386" y="80" width="8" height="8" rx="1.5" fill="#d97757"/>
<rect x="440" y="26" width="8" height="8" rx="1.5" fill="#10a37f"/>
<rect x="440" y="35" width="8" height="8" rx="1.5" fill="#10a37f"/>
<rect x="440" y="44" width="8" height="8" rx="1.5" fill="#10a37f"/>
<rect x="440" y="53" width="8" height="8" rx="1.5" fill="#10a37f"/>
<rect x="440" y="62" width="8" height="8" rx="1.5" fill="#10a37f"/>
<rect x="440" y="71" width="8" height="8" rx="1.5" fill="#10a37f"/>
<rect x="440" y="80" width="8" height="8" rx="1.5" fill="#10a37f"/>
<rect x="449" y="80" width="8" height="8" rx="1.5" fill="#10a37f"/>
<rect x="458" y="80" width="8" height="8" rx="1.5" fill="#10a37f"/>
<rect x="467" y="80" width="8" height="8" rx="1.5" fill="#10a37f"/>
<rect x="476" y="80" width="8" height="8" rx="1.5" fill="#10a37f"/>
<rect x="503" y="26" width="8" height="8" rx="1.5" fill="#10a37f"/>
<rect x="512" y="26" width="8" height="8" rx="1.5" fill="#10a37f"/>
<rect x="521" y="26" width="8" height="8" rx="1.5" fill="#10a37f"/>
<rect x="494" y="35" width="8" height="8" rx="1.5" fill="#10a37f"/>
<rect x="530" y="35" width="8" height="8" rx="1.5" fill="#10a37f"/>
<rect x="494" y="44" width="8" height="8" rx="1.5" fill="#10a37f"/>
<rect x="530" y="44" width="8" height="8" rx="1.5" fill="#10a37f"/>
<rect x="494" y="53" width="8" height="8" rx="1.5" fill="#10a37f"/>
<rect x="530" y="53" width="8" height="8" rx="1.5" fill="#10a37f"/>
<rect x="494" y="62" width="8" height="8" rx="1.5" fill="#10a37f"/>
<rect x="530" y="62" width="8" height="8" rx="1.5" fill="#10a37f"/>
<rect x="494" y="71" width="8" height="8" rx="1.5" fill="#10a37f"/>
<rect x="530" y="71" width="8" height="8" rx="1.5" fill="#10a37f"/>
<rect x="503" y="80" width="8" height="8" rx="1.5" fill="#10a37f"/>
<rect x="512" y="80" width="8" height="8" rx="1.5" fill="#10a37f"/>
<rect x="521" y="80" width="8" height="8" rx="1.5" fill="#10a37f"/>
<rect x="557" y="26" width="8" height="8" rx="1.5" fill="#10a37f"/>
<rect x="566" y="26" width="8" height="8" rx="1.5" fill="#10a37f"/>
<rect x="575" y="26" width="8" height="8" rx="1.5" fill="#10a37f"/>
<rect x="548" y="35" width="8" height="8" rx="1.5" fill="#10a37f"/>
<rect x="584" y="35" width="8" height="8" rx="1.5" fill="#10a37f"/>
<rect x="548" y="44" width="8" height="8" rx="1.5" fill="#10a37f"/>
<rect x="584" y="44" width="8" height="8" rx="1.5" fill="#10a37f"/>
<rect x="548" y="53" width="8" height="8" rx="1.5" fill="#10a37f"/>
<rect x="584" y="53" width="8" height="8" rx="1.5" fill="#10a37f"/>
<rect x="548" y="62" width="8" height="8" rx="1.5" fill="#10a37f"/>
<rect x="584" y="62" width="8" height="8" rx="1.5" fill="#10a37f"/>
<rect x="548" y="71" width="8" height="8" rx="1.5" fill="#10a37f"/>
<rect x="584" y="71" width="8" height="8" rx="1.5" fill="#10a37f"/>
<rect x="557" y="80" width="8" height="8" rx="1.5" fill="#10a37f"/>
<rect x="566" y="80" width="8" height="8" rx="1.5" fill="#10a37f"/>
<rect x="575" y="80" width="8" height="8" rx="1.5" fill="#10a37f"/>
<rect x="602" y="26" width="8" height="8" rx="1.5" fill="#10a37f"/>
<rect x="611" y="26" width="8" height="8" rx="1.5" fill="#10a37f"/>
<rect x="620" y="26" width="8" height="8" rx="1.5" fill="#10a37f"/>
<rect x="629" y="26" width="8" height="8" rx="1.5" fill="#10a37f"/>
<rect x="602" y="35" width="8" height="8" rx="1.5" fill="#10a37f"/>
<rect x="638" y="35" width="8" height="8" rx="1.5" fill="#10a37f"/>
<rect x="602" y="44" width="8" height="8" rx="1.5" fill="#10a37f"/>
<rect x="638" y="44" width="8" height="8" rx="1.5" fill="#10a37f"/>
<rect x="602" y="53" width="8" height="8" rx="1.5" fill="#10a37f"/>
<rect x="611" y="53" width="8" height="8" rx="1.5" fill="#10a37f"/>
<rect x="620" y="53" width="8" height="8" rx="1.5" fill="#10a37f"/>
<rect x="629" y="53" width="8" height="8" rx="1.5" fill="#10a37f"/>
<rect x="602" y="62" width="8" height="8" rx="1.5" fill="#10a37f"/>
<rect x="602" y="71" width="8" height="8" rx="1.5" fill="#10a37f"/>
<rect x="602" y="80" width="8" height="8" rx="1.5" fill="#10a37f"/>
<text x="332.0" y="111" fill="#8b949e" font-size="13" text-anchor="middle" font-style="italic" font-family="ui-monospace,SFMono-Regular,Menlo,Consolas,monospace">two models &#183; one argument &#183; zero echo chamber</text>
</svg>
